# xmcd
#
# Track frame offsets:
#	150
#	15262
#	32786
#	48420
#	63361
#	78879
#	96038
#	113559
#	130837
#	147410
#	161978
#	178019
#
# Disc length: 2590 seconds
#
# Revision: 0
# Processed by: cddbd v1.5.2PL0 Copyright (c) Steve Scherf et al.
# Submitted via: audiograbber 1.83.01
#
DISCID=960a1c0c
DTITLE=Craig Morgan - My Kind Of Livin'
DYEAR=2005
DGENRE=Country
TTITLE0=That's What I Love About Sunday
TTITLE1=I Got You
TTITLE2=That's When I'll Believe You're Gone
TTITLE3=I'm Country
TTITLE4=Lotta Man In That Little Boy
TTITLE5=If You Like That
TTITLE6=Ain't The Way I Wanna Go Out
TTITLE7=Redneck Yacht Club
TTITLE8=Rain For The Roses
TTITLE9=Blame Me
TTITLE10=Cowboy And Clown
TTITLE11=In My Neighborhood
EXTD=
EXTT0=
EXTT1=
EXTT2=
EXTT3=
EXTT4=
EXTT5=
EXTT6=
EXTT7=
EXTT8=
EXTT9=
EXTT10=
EXTT11=
PLAYORDER=
